# xmcd
#
# Track frame offsets:
#	150
#	28194
#	51847
#	66671
#	85388
#	96441
#	120361
#	142659
#	167964
#	187298
#	212562
#	231970
#
# Disc length: 3266 seconds
#
# Revision: 0
# Processed by: cddbd v1.5.1PL0 Copyright (c) Steve Scherf et al.
# Submitted via: audiograbber 1.83.01
#
DISCID=b20cc00c
DTITLE=Yuri Popoff - Lua no Céu Congadeiro
DYEAR=2005
DGENRE=
TTITLE0=Suíte: Chegança de Marujos
TTITLE1=Semente
TTITLE2=Peró-Mingu
TTITLE3=Festa de Santo
TTITLE4=Benzim dos outro
TTITLE5=Despedida/Retirada
TTITLE6=Luz do Sertão
TTITLE7=Dança de Congo
TTITLE8=Rama
TTITLE9=Lua no Céu Congadeiro
TTITLE10=Marinheiro Chora
TTITLE11=Senhora Rainha
EXTD=
EXTT0=Recolhido por Yuri Popoff - Terno de Marujos
EXTT1=Oração Tradicional dos Índios Guaranis ao grande espírito Yanderé
EXTT2=Recolhido por Yuri Popoff - Terno de Caboclinhos\n- Chefe: Joaquim Pólo, 
EXTT2=Montes Claros - MG
EXTT3=Yuri Popoff - Fernando Mendonça
EXTT4=Recolhido por Yuri Popoff na festa do Rosário dos Homens Pretos (Minas-No
EXTT4=vas - MG)
EXTT5=Recolhido por Yuri Popoff - Ternos de Catopês (Montes Claros - MG)
EXTT6=Yuri Popoff - Fernando Brant
EXTT7=Yuri Popoff - Murilo Antunes
EXTT8=Recolhido por Yuri Popoff nos Ternos de Congos (Belo Horizonte - MG)
EXTT9=Yuri Popoff - Nei Lopes\nRecolhido por Yuri Popoff - Guarda de Moçambique
EXTT9=de Stª Efigênia - Capitão Ekiodoro, (Vespasiano - MG). Dedicada ao Capit
EXTT9=ão Antônio e à Capitã Pedrina do Terno de Moçambique de Nossa Srª das Mer
EXTT9=cês, (Oliveira - MG)
EXTT10=Yuri Popoff - Nei Lopes\nRecolhido por Yuri Popoff - Guarda de Moçambiqu
EXTT10=e de Stª Efigênia (Vespasiano - MG). Dedicada ao Capitão Eliodoro, da Gu
EXTT10=arda de Moçambique de Stª Efigênia (Vespasiano - MG)
EXTT11=Yuri Popoff - Murilo Antunes
PLAYORDER=
